<svg xmlns="http://www.w3.org/2000/svg" width="256" height="256"><path fill="#1976D2" fill-opacity=".016" fill-rule="evenodd" d="M0 128.004v128.004l128.25-.254 128.25-.254.254-127.75L257.008 0H0zm.485.496c0 70.4.119 99.053.265 63.672s.146-92.98 0-128S.485 58.1.485 128.5"/><path fill="#1976D2" fill-opacity=".295" fill-rule="evenodd" d="M70.323 32.932c-2.847 1.043-6.868 3.046-8.934 4.45-6.134 4.168-32.898 30.162-36.22 35.177-5.323 8.035-7.46 16.252-6.994 26.893.626 14.314 2.677 17.676 26.564 43.55 26.323 28.51 28.312 29.607 56.261 31.006 17.577.879 20.67 1.803 27.68 8.265 7.133 6.575 20.204 22.205 21.836 26.111 2.911 6.968 7.228 7.284 14.762 1.082 8.948-7.366 9.89-13.697 2.5-16.785-3.551-1.484-16.542-15.28-19.004-20.181-4.606-9.172-2.712-17.676 6.228-27.958 3.327-3.826 7.275-9.451 8.774-12.5 2.486-5.058 2.724-6.546 2.724-17.042 0-10.499-.244-12.022-2.8-17.5-4.915-10.535-13.157-17.48-25.7-21.659l-5.5-1.832 6.343.49c14.442 1.115 26.184 10.547 31.169 25.036 5.831 16.947 2.312 32.614-10.828 48.208-8.291 9.839-9.694 16.483-5.094 24.109 1.356 2.249 1.732 2.312 9.885 1.672 9.711-.762 17.11-3.087 24.099-7.571 4.787-3.073 38.485-38.87 43.363-46.067 4.712-6.951 6.838-15.417 6.301-25.101-.409-7.385-1.043-9.895-4.153-16.443-3.311-6.973-5.253-9.274-19.877-23.553-19.829-19.362-25.668-22.883-39.111-23.589-9.211-.483-17.154 1.281-24.084 5.349-3.634 2.134-46.682 44.509-52.941 52.113-1.431 1.74-3.833 5.79-5.337 9-2.46 5.252-2.735 6.943-2.735 16.838 0 9.821.285 11.608 2.66 16.675 5.063 10.8 14.111 18.39 26.238 22.01l6.102 1.822-5.871-.591c-7.429-.747-12.477-2.528-18.063-6.371-15.451-10.63-20.956-31.564-13.523-51.429 2.647-7.076 6.254-11.599 23.519-29.487l13.87-14.371-7.541-7.23c-4.847-4.648-9.993-8.437-14.408-10.611-6.242-3.073-7.784-3.403-16.925-3.631-7.852-.195-11.193.166-15.235 1.646m102.512 55.581c5.199 10.487 6.437 16.457 5.883 28.359-.272 5.845-.777 11.753-1.121 13.128-.345 1.375.484.267 1.843-2.463 4.887-9.822 4.377-22.372-1.383-34.072-1.634-3.32-4.145-7.139-5.581-8.487l-2.609-2.452zm-57.572-1.106c-11.1 5.275-18.339 16.595-18.397 28.771-.03 6.305 2.371 14.944 4.689 16.868 1.159.961 1.117.431-.209-2.673-2.418-5.664-2.246-17.625.338-23.424 2.667-5.986 7.508-11.389 13.203-14.737 4.046-2.379 5.658-2.711 13.113-2.7 9.761.014 13.995 1.723 20.201 8.153 5.751 5.96 8.26 12.448 8.247 21.335-.014 10.034-2.802 16.292-10.33 23.183-3.09 2.829-4.718 4.657-3.618 4.062 4.473-2.418 10.234-8.335 13.032-13.386 2.736-4.939 2.968-6.142 2.968-15.359 0-11.689-1.805-16.52-8.736-23.383-6.304-6.241-11.801-8.542-21.264-8.898-6.838-.257-8.761.061-13.237 2.188m9.069 5.552c-4.903 1.168-11.738 5.573-14.727 9.492-4.582 6.007-5.84 10.217-5.438 18.191.307 6.067.848 7.927 3.363 11.545 2.992 4.306 10.048 8.813 13.796 8.813 1.048 0-.501-1.256-3.446-2.794-10.902-5.695-14.306-17.683-8.431-29.691 4.367-8.926 13.193-14.433 23.423-14.615 4.326-.076 5.049-.285 3.128-.9-3.133-1.004-7.561-1.019-11.668-.041m60.68.169c.006.204.676 2.847 1.488 5.872s1.482 7.664 1.488 10.309c.007 2.949.399 4.57 1.012 4.191 2.477-1.531.478-17.029-2.517-19.514-.816-.677-1.478-1.063-1.471-.858m-108.457 8.026c-.932 2.33-2.135 6.616-2.672 9.523-1.797 9.721 2.199 23.455 9.114 31.323l3.076 3.5-2.987-5.5c-1.643-3.025-3.684-8.182-4.537-11.46-1.74-6.695-2.061-22.268-.566-27.48 1.413-4.928.559-4.872-1.428.094M132.5 98c.34.55 1.424 1 2.409 1 2.984 0 9.908 5.721 12.083 9.983 6.803 13.336.278 28.233-14.71 33.58-3.212 1.146-3.397 1.356-1.228 1.393 4.073.07 12.627-4.766 16.031-9.063 8.165-10.309 7.098-24.257-2.499-32.683-4.056-3.561-13.778-6.948-12.086-4.21m-6.822 5.655c-.373.373-.678 2.613-.678 4.977 0 5.123-4.124 10.56-9.48 12.497-3.056 1.105-3.259 1.429-2.37 3.79 2.35 6.236 10.706 11.716 15.826 10.377 1.622-.424 2.024-1.354 2.024-4.68 0-5.396 3.757-11.037 8.489-12.748 1.931-.699 3.511-1.877 3.511-2.619 0-2.706-3.032-7.104-6.226-9.031-3.574-2.156-10.015-3.644-11.096-2.563m-8.42 4.595c-4.635 4.805-6.66 10.75-3.662 10.75 4.495 0 10.59-8.467 9.027-12.541-.831-2.164-1.893-1.809-5.365 1.791M66.142 121c-.085 4.761 2.671 14 4.175 14 .229 0-.176-2.363-.899-5.25-.722-2.888-1.733-7.275-2.246-9.75l-.932-4.5zm71.258 2.4c-2.62 2.62-3.4 4.234-3.4 7.035 0 3.155.231 3.511 1.75 2.692 3.813-2.056 8.25-8.612 8.25-12.192 0-2.023-3.371-.764-6.6 2.465m-39.933 62.01c-3.234 3.66-6.879 6.906-8.1 7.213-3.133.786-5.617 3.854-5.617 6.936 0 1.828 1.609 4.254 5.3 7.992 8.12 8.222 13.082 8.276 16.832.186 1.08-2.33 5.599-8.232 10.041-13.115s8.077-9.23 8.077-9.661c0-1.629-9.262-5.174-14.841-5.68l-5.812-.527z"/><path fill="#1976D2" fill-opacity=".101" fill-rule="evenodd" d="M71.428 32.98C62.712 35.827 59 38.663 41.451 55.883c-13.932 13.671-16.081 16.23-19.313 23-3.473 7.271-3.638 8.096-3.638 18.169 0 10.19.128 10.807 3.735 18 3.013 6.007 7.27 11.271 22 27.2 10.046 10.864 20.509 21.346 23.252 23.294 7.616 5.407 15.605 7.38 33.676 8.313 21.238 1.097 23.045 1.987 37.418 18.449 5.855 6.705 11.318 13.829 12.14 15.831 1.648 4.01 5.344 6.27 8.644 5.286 2.758-.824 11.552-9.255 12.702-12.179 1.288-3.275-.773-6.994-4.573-8.248-4.553-1.503-19.033-18.574-20.558-24.237-2.301-8.542.13-15.73 8.372-24.761 9.581-10.499 13.844-25.398 10.764-37.63-1.241-4.926-6.921-15.291-8.409-15.342-.46-.015-2.71-1.35-5-2.965-5.721-4.036-14.603-6.448-20.51-5.569-2.559.381-4.337.372-3.951-.02.387-.391.162-1.318-.5-2.058-3.054-3.421-3.535-4.26-2.892-5.049.602-.738-3.421 2.286-4.834 3.633-7.192 6.859-9.011 8.271-8.375 6.5.395-1.1.35-1.666-.1-1.259s-1.421.24-2.159-.372c-.738-.613-1.349-.721-1.357-.241-.009.479-.38.298-.826-.404-.614-.969-1.441-.692-3.423 1.145-1.437 1.331-2.803 2.231-3.035 1.999-.768-.769-5.782 6.568-8.471 12.397-2.288 4.96-2.652 7.086-2.688 15.735-.039 9.227.206 10.524 3.167 16.775 5.374 11.345 14.985 19.107 27.75 22.41l5.041 1.305-6.639-.371c-22.189-1.239-38.932-23.873-35.039-47.367 2.059-12.421 6.495-19.406 23.744-37.384C116.055 61.02 123 53.456 123 53.059c0-.396-3.329-3.949-7.399-7.895-10.117-9.81-17.902-13.459-29.584-13.869-6.415-.224-10.016.192-14.589 1.685m60.385 47.703c.721.289 1.584.253 1.916-.079s-.258-.568-1.312-.525c-1.165.048-1.402.285-.604.604M122 83.906c0 .499-.9.671-2 .384-1.162-.304-2-.031-2 .652 0 .647-.45.898-1 .558s-1-.066-1 .608-.263.962-.585.641c-.634-.635-2.437.68-9.063 6.609C94.92 103.59 92.766 123.293 101.91 134l2.989 3.5-2.426-6c-2.975-7.36-3.138-14.438-.467-20.323 2.435-5.366 5.806-10.177 7.13-10.177.55 0 .016 1.383-1.188 3.072-2.696 3.787-4.955 11.05-4.926 15.837.046 7.554 7.106 18.077 13.406 19.982 5.758 1.742 8.572 2.148 8.572 1.239 0-.499-1.585-1.205-3.521-1.568-4.399-.825-9.956-5.617-12.659-10.915-1.68-3.294-1.965-5.249-1.539-10.562.288-3.586 1.02-6.685 1.628-6.888.607-.202.849-.779.538-1.282s-.062-.915.553-.915.869-.403.565-.895c-.305-.493.147-1.164 1.004-1.493s1.278-1.051.935-1.605c-.904-1.464 1.803-1.234 3.949.335 1.754 1.283 1.732 1.415-.496 2.976-2.643 1.851-3.028 2.975-3.655 10.682-.373 4.569-.055 6.077 1.875 8.908 3.36 4.93 6.962 7.241 12.209 7.832l4.614.52v-4.196c0-6.651 4.687-13.397 10.141-14.595 3.323-.73 3.269-.551 1.465-4.869-1.842-4.408-7.162-8.345-12.412-9.185-2.331-.373-4.51-1.117-4.841-1.653-.369-.598.267-.7 1.641-.264 1.302.413 3.271.163 4.69-.597 1.702-.91 2.655-.982 3.131-.236.377.59 2.963 2.222 5.748 3.626 5.98 3.016 8.674 7.801 8.657 15.378-.024 10.667-7.169 19.615-18.62 23.323l-6.1 1.974 4.957-.575c7.012-.814 12.946-3.906 17.562-9.15 4.563-5.184 6.28-10.384 5.829-17.652-.174-2.799.038-5.646.47-6.328.552-.869.288-1.047-.882-.598-1.453.557-1.512.348-.46-1.619 1.679-3.137 2.866-1.548 4.199 5.623 2.106 11.323-3.699 23.904-14.061 30.476-2.478 1.571-4.056 2.857-3.506 2.857 1.973 0 9.957-5.723 13.286-9.524 5.213-5.95 7.449-11.881 7.533-19.976.094-9.008-1.693-14.992-6.299-21.099-4.688-6.215-12.245-10.759-21.29-12.801-8.135-1.838-9.838-1.958-9.838-.694M77.031 99.657c-3.55 7.553-4.589 15.192-3.137 23.072 1.424 7.727 5.87 16.74 10.315 20.911l3.048 2.86-2.472-4c-4.951-8.012-7.03-15.361-7.496-26.5-.32-7.676-.025-11.832 1.1-15.453 2.003-6.452 1.432-6.826-1.358-.89m70.512 2.273c-.287.464.144 1.395.957 2.07s1.188 1.695.834 2.268c-.373.604-.159.742.511.327 1.639-1.012 1.432-4.275-.313-4.944-.807-.31-1.702-.184-1.989.279m-80.986 13.341c-1.509 3.395-.125 14.073 2.341 18.063 2.872 4.648 3.662 4.251 1.559-.783-.864-2.066-1.917-7.198-2.341-11.404-.511-5.066-1.037-7.049-1.559-5.876M118 117.707c-4.33 2.055-4.467 2.159-3.76 2.867.679.678 6.357-2.113 7.256-3.567.804-1.301.659-1.272-3.496.7m21.893 2.79c-3.328 1.809-5.565 5.237-6.432 9.857-.536 2.857-.364 3.646.793 3.646 3.785 0 9.746-7.89 9.746-12.901 0-2.443-.567-2.526-4.107-.602m80.186 1.222c-.043.67-.662.994-1.376.721-.737-.283-6.366 4.672-13.044 11.482-7.626 7.777-12.259 11.785-13.204 11.422-1.88-.721-1.859-1.975.045-2.706.825-.316 1.5-.139 1.5.393 0 2.184 1.511.776 1.644-1.532.083-1.431-.399-2.499-1.127-2.499-.7 0-1.872-.723-2.605-1.606-.971-1.17-2.463-1.479-5.493-1.138-4.092.462-7.419-.53-7.419-2.212 0-.471.9-.621 2-.334 1.118.293 2 .031 2-.593 0-.615-.338-1.151-.75-1.194s-1.54-.227-2.505-.412-1.575-.037-1.355.327-.187 1.204-.905 1.867c-1.028.95-1.432.874-1.904-.353-.371-.967-1.259-1.329-2.339-.953-1.552.54-1.542.45.091-.817 1.764-1.37 1.755-1.464-.228-2.526-1.702-.911-1.958-.838-1.476.421.322.838.06 1.523-.581 1.523s-.888.45-.548 1 .191 1-.33 1-.885.6-.809 1.332c.165 1.58-2.944 5.884-10.054 13.922-2.856 3.229-5.721 7.47-6.366 9.425-1.37 4.15-.746 10.443 1.352 13.645 1.397 2.133 1.903 2.214 9.951 1.588 17.074-1.327 22.863-4.701 39.442-22.985 6.696-7.385 14.119-15.43 16.495-17.877 2.375-2.448 4.326-4.698 4.334-5 .009-.303.412-1.225.897-2.05.697-1.186.613-1.252-.401-.314-1.394 1.288-3.138.185-4.271-2.704-.342-.87-.615-.979-.661-.263M175 125.5c0 .867.595 1.209 1.5.862.825-.317 1.5-.705 1.5-.862s-.675-.545-1.5-.862c-.905-.347-1.5-.005-1.5.862m-73.8 55.7c-2.214 2.214-1.217 3.299 3.212 3.497 4.263.191 9.29 1.959 12.793 4.499 1.423 1.032 2.125.843 4.238-1.142 1.857-1.745 2.252-2.716 1.483-3.644-2.932-3.532-19.026-5.91-21.726-3.21m10.396 7.537c-.405.406-1.343.743-2.083.75-1.73.017-19.513 16.373-19.513 17.947 0 1.958 5.708 5.566 8.805 5.566 3.009 0 6.195-2.621 6.195-5.096 0-.791 1.927-3.681 4.283-6.421 2.355-2.741 5.115-6.296 6.132-7.9 1.789-2.82 1.79-2.96.026-4.25-2.083-1.523-2.806-1.635-3.845-.596"/><path fill="#1976D2" fill-opacity=".591" fill-rule="evenodd" d="M76 32.098c-10.112 1.975-16.501 6.367-33.523 23.044-12.925 12.664-16.798 17.1-19.295 22.101-6.218 12.451-6.478 26.5-.71 38.29 2.494 5.096 15.291 19.892 34.008 39.319 14.424 14.969 19.093 16.99 42.02 18.179 16.524.857 22.014 2.063 27.646 6.073C130.564 182.25 151 206.002 151 207.991c0 1.937 2.769 4.727 5 5.037 3.528.491 5.137-.301 10.419-5.128 4.58-4.186 5.581-5.683 5.581-8.345 0-3.439-2.51-6.555-5.279-6.555-2.486 0-18.232-18.425-19.574-22.902-2.848-9.506-.966-16.07 7.424-25.898 6.679-7.824 9.784-13.708 11.426-21.655 3.484-16.863-5.785-32.689-22.035-37.625-3.744-1.137-8.08-1.895-9.635-1.684-3.027.41-3.064.386 5.124 3.313 7.205 2.576 15.662 11.228 18.522 18.951 5.86 15.82-1.37 34.189-16.301 41.417-6.686 3.236-6.899 1.966-.295-1.76 9.46-5.339 14.737-14.963 14.486-26.418l-.137-6.239-.697 6c-.383 3.3-1.485 7.514-2.448 9.364-2.59 4.978-9.446 12.026-13.914 14.306-4.561 2.327-15.408 3.837-14.263 1.986.393-.636 1.827-1.156 3.187-1.156 6.97 0 15.737-6.29 19.146-13.736 4.586-10.017 1.827-19.895-6.781-24.287-5.259-2.682-8.582-2.584-3.927.116 3.791 2.199 7.971 7.518 7.971 10.141 0 .955-1.429 2.083-3.511 2.77-4.917 1.622-8.679 6.915-9.267 13.038l-.476 4.958h-4.905c-6.176 0-11.139-2.049-15.1-6.234l-3.091-3.266 1.925 3.392c2.541 4.477 8.833 8.99 13.597 9.751 4.694.751 5.052 2.357.524 2.357-4.79 0-12.967-4.442-16.136-8.765-2.225-3.036-2.603-3.267-2.022-1.235 1.2 4.195 3.345 7.811 6.211 10.468 3.334 3.092 2.489 3.204-3.008.4-6.346-3.238-10.563-6.855-14.419-12.368-2.322-3.321-3.265-4.16-2.806-2.5 2.018 7.295 11.21 17.788 19.092 21.791 2.141 1.088 6.592 2.587 9.892 3.332l6 1.354-4.5.348c-6.859.529-14.23-1.528-20.884-5.829-17.723-11.454-23.177-36.154-12.596-57.036 1.582-3.122 8.753-11.611 18.664-22.093l16.094-17.023-5.389-5.544C105.103 34.145 91.253 29.119 76 32.098m7.75 9.608c1.237.238 3.263.238 4.5 0 1.237-.239.225-.434-2.25-.434s-3.487.195-2.25.434M73 42.906c0 .499.9.671 2 .384s2-.696 2-.907c0-.21-.9-.383-2-.383s-2 .408-2 .906m23.178 1.385c3.124 1.335 7.624 3.934 10 5.775 2.485 1.925 3.517 2.415 2.427 1.153-2.918-3.382-10.861-8.132-14.676-8.776-2.712-.458-2.242-.072 2.249 1.848m-19.914 56.307c-2.441 5.212-2.764 7.07-2.764 15.902 0 9.274.235 10.472 3.243 16.5 2.778 5.569 8.295 13 9.651 13 .232 0-1.123-3.037-3.011-6.75-5.977-11.753-7.707-25.008-4.846-37.145.829-3.517 1.279-6.623 1-6.902-.28-.279-1.752 2.148-3.273 5.395m-9.483 12.997c-2.792 4.32-1.534 14.722 2.541 21.016 3.158 4.878 3.776 4.151 1.519-1.787-1.082-2.847-2.278-8.585-2.659-12.75-.381-4.166-1.012-7.081-1.401-6.479m71.834 7.493c-3.388 2.665-5.615 6.973-5.615 10.862 0 3.885 1.169 3.842 5.556-.2 3.311-3.051 6.823-10.327 5.791-11.997-.817-1.322-3-.813-5.732 1.335"/></svg>